<svg xmlns="http://www.w3.org/2000/svg" width="14" height="13" viewBox="0 0 14 13" fill="none">
<path fill-rule="evenodd" clip-rule="evenodd" d="M6.39715 6.5938C6.42203 6.56892 6.436 6.53518 6.436 6.5C6.436 6.46482 6.42203 6.43108 6.39715 6.4062L1.19012 1.19917C0.915793 0.924844 0.915793 0.480072 1.19012 0.205745C1.46445 -0.0685817 1.90922 -0.0685817 2.18355 0.205745L7.39057 5.41277C7.44238 5.46458 7.52637 5.46458 7.57817 5.41277L12.785 0.205949C13.0593 -0.0683792 13.5041 -0.0683786 13.7784 0.205949C14.0528 0.480276 14.0528 0.925047 13.7784 1.19937L8.5716 6.4062C8.5198 6.458 8.5198 6.542 8.5716 6.5938L13.7784 11.8006C14.0528 12.075 14.0528 12.5197 13.7784 12.7941C13.5041 13.0684 13.0593 13.0684 12.785 12.7941L7.57817 7.58723C7.52637 7.53542 7.44238 7.53542 7.39057 7.58723L2.18355 12.7943C1.90922 13.0686 1.46445 13.0686 1.19012 12.7943C0.915793 12.5199 0.915793 12.0752 1.19012 11.8008L6.39715 6.5938Z" fill="#D81D3C"/>
</svg>